<?xml version="1.0" encoding="UTF-8" standalone="no"?>
<!-- Created with Inkscape (http://www.inkscape.org/) -->

<svg
   xmlns:dc="http://purl.org/dc/elements/1.1/"
   xmlns:cc="http://creativecommons.org/ns#"
   xmlns:rdf="http://www.w3.org/1999/02/22-rdf-syntax-ns#"
   xmlns:svg="http://www.w3.org/2000/svg"
   xmlns="http://www.w3.org/2000/svg"
   xmlns:sodipodi="http://sodipodi.sourceforge.net/DTD/sodipodi-0.dtd"
   xmlns:inkscape="http://www.inkscape.org/namespaces/inkscape"
   width="29.890352"
   height="29.999996"
   viewBox="0 0 7.908489 7.937499"
   version="1.1"
   id="svg2234"
   inkscape:version="0.92.4 (5da689c313, 2019-01-14)"
   sodipodi:docname="call.svg">
  <defs
     id="defs2228" />
  <sodipodi:namedview
     id="base"
     pagecolor="#ffffff"
     bordercolor="#666666"
     borderopacity="1.0"
     inkscape:pageopacity="0.0"
     inkscape:pageshadow="2"
     inkscape:zoom="1"
     inkscape:cx="176.64761"
     inkscape:cy="-14.179914"
     inkscape:document-units="px"
     inkscape:current-layer="layer1"
     showgrid="false"
     inkscape:pagecheckerboard="true"
     fit-margin-top="0"
     fit-margin-left="0"
     fit-margin-right="0"
     fit-margin-bottom="0"
     inkscape:window-width="1366"
     inkscape:window-height="715"
     inkscape:window-x="0"
     inkscape:window-y="24"
     inkscape:window-maximized="1"
     units="px" />
  <metadata
     id="metadata2231">
    <rdf:RDF>
      <cc:Work
         rdf:about="">
        <dc:format>image/svg+xml</dc:format>
        <dc:type
           rdf:resource="http://purl.org/dc/dcmitype/StillImage" />
        <dc:title></dc:title>
      </cc:Work>
    </rdf:RDF>
  </metadata>
  <g
     inkscape:label="Layer 1"
     inkscape:groupmode="layer"
     id="layer1"
     transform="translate(-64.081469,-93.648806)">
    <g
       transform="matrix(0.01589914,0,0,0.01589914,64.199229,93.781093)"
       id="g4"
       style="fill:#f7fdff;fill-opacity:1;stroke:#ffffff;stroke-width:16.64076424;stroke-miterlimit:4;stroke-dasharray:none;stroke-opacity:1">
      <path
         inkscape:connector-curvature="0"
         d="m 98.339,320.8 c 47.6,56.9 104.9,101.7 170.3,133.4 24.9,11.8 58.2,25.8 95.3,28.2 2.3,0.1 4.5,0.2 6.8,0.2 24.9,0 44.9,-8.6 61.2,-26.3 0.1,-0.1 0.3,-0.3 0.4,-0.5 5.8,-7 12.4,-13.3 19.3,-20 4.7,-4.5 9.5,-9.2 14.1,-14 21.3,-22.2 21.3,-50.4 -0.2,-71.9 l -60.1,-60.1 c -10.2,-10.6 -22.4,-16.2 -35.2,-16.2 -12.8,0 -25.1,5.6 -35.6,16.1 l -35.8,35.8 c -3.3,-1.9 -6.7,-3.6 -9.9,-5.2 -4,-2 -7.7,-3.9 -11,-6 -32.6,-20.7 -62.2,-47.7 -90.5,-82.4 -14.3,-18.1 -23.9,-33.3 -30.6,-48.8 9.4,-8.5 18.2,-17.4 26.7,-26.1 3,-3.1 6.1,-6.2 9.2,-9.3 10.8,-10.8 16.6,-23.3 16.6,-36 0,-12.7 -5.7,-25.2 -16.6,-36 l -29.8,-29.8 c -3.5,-3.5 -6.8,-6.9 -10.2,-10.4 -6.6,-6.8 -13.5,-13.8 -20.3,-20.1 C 122.139,5.3 110.039,0 97.239,0 c -12.7,0 -24.9,5.3 -35.6,15.5 l -37.4,37.4 c -13.6,13.6 -21.3,30.1 -22.9,49.2 -1.9,23.9 2.5,49.3 13.9,80 17.5,47.5 43.9,91.6 83.1,138.7 z m -72.6,-216.6 c 1.2,-13.3 6.3,-24.4 15.9,-34 L 78.839,33 c 5.8,-5.6 12.2,-8.5 18.4,-8.5 6.1,0 12.3,2.9 18,8.7 6.7,6.2 13,12.7 19.8,19.6 3.4,3.5 6.9,7 10.4,10.6 l 29.8,29.8 c 6.2,6.2 9.4,12.5 9.4,18.7 0,6.2 -3.2,12.5 -9.4,18.7 -3.1,3.1 -6.2,6.3 -9.3,9.4 -9.3,9.4 -18,18.3 -27.6,26.8 -0.2,0.2 -0.3,0.3 -0.5,0.5 -8.3,8.3 -7,16.2 -5,22.2 0.1,0.3 0.2,0.5 0.3,0.8 7.7,18.5 18.4,36.1 35.1,57.1 30,37 61.6,65.7 96.4,87.8 4.3,2.8 8.9,5 13.2,7.2 4,2 7.7,3.9 11,6 0.4,0.2 0.7,0.4 1.1,0.6 3.3,1.7 6.5,2.5 9.7,2.5 8,0 13.2,-5.1 14.9,-6.8 l 37.4,-37.4 c 5.8,-5.8 12.1,-8.9 18.3,-8.9 7.6,0 13.8,4.7 17.7,8.9 l 60.3,60.2 c 12,12 11.9,25 -0.3,37.7 -4.2,4.5 -8.6,8.8 -13.3,13.3 -7,6.8 -14.3,13.8 -20.9,21.7 -11.5,12.4 -25.2,18.2 -42.9,18.2 -1.7,0 -3.5,-0.1 -5.2,-0.2 -32.8,-2.1 -63.3,-14.9 -86.2,-25.8 -62.2,-30.1 -116.8,-72.8 -162.1,-127 -37.3,-44.9 -62.4,-86.7 -79,-131.5 -10.3,-27.5 -14.2,-49.6 -12.6,-69.7 z"
         id="path2"
         style="fill:#f7fdff;fill-opacity:1;stroke:#ffffff;stroke-width:16.64076424;stroke-miterlimit:4;stroke-dasharray:none;stroke-opacity:1" />
    </g>
  </g>
</svg>
