<?xml version="1.0" encoding="UTF-8" standalone="no"?>
<svg
   xmlns:dc="http://purl.org/dc/elements/1.1/"
   xmlns:cc="http://creativecommons.org/ns#"
   xmlns:rdf="http://www.w3.org/1999/02/22-rdf-syntax-ns#"
   xmlns:svg="http://www.w3.org/2000/svg"
   xmlns="http://www.w3.org/2000/svg"
   xmlns:sodipodi="http://sodipodi.sourceforge.net/DTD/sodipodi-0.dtd"
   xmlns:inkscape="http://www.inkscape.org/namespaces/inkscape"
   viewBox="0 0 448 448"
   version="1.1"
   id="svg4"
   sodipodi:docname="expand.svg"
   width="448"
   height="448"
   inkscape:version="0.92.4 (5da689c313, 2019-01-14)">
  <metadata
     id="metadata10">
    <rdf:RDF>
      <cc:Work
         rdf:about="">
        <dc:format>image/svg+xml</dc:format>
        <dc:type
           rdf:resource="http://purl.org/dc/dcmitype/StillImage" />
        <dc:title></dc:title>
      </cc:Work>
    </rdf:RDF>
  </metadata>
  <defs
     id="defs8" />
  <sodipodi:namedview
     pagecolor="#ffffff"
     bordercolor="#666666"
     borderopacity="1"
     objecttolerance="10"
     gridtolerance="10"
     guidetolerance="10"
     inkscape:pageopacity="0"
     inkscape:pageshadow="2"
     inkscape:window-width="640"
     inkscape:window-height="480"
     id="namedview6"
     showgrid="false"
     fit-margin-top="0"
     fit-margin-left="0"
     fit-margin-right="0"
     fit-margin-bottom="0"
     inkscape:pagecheckerboard="true"
     inkscape:zoom="1.1972656"
     inkscape:cx="78.668842"
     inkscape:cy="224"
     inkscape:current-layer="svg4" />
  <path
     d="M 0,148 V 24 C 0,10.7 10.7,0 24,0 h 124 c 6.6,0 12,5.4 12,12 v 40 c 0,6.6 -5.4,12 -12,12 H 64 v 84 c 0,6.6 -5.4,12 -12,12 H 12 C 5.4,160 0,154.6 0,148 Z M 288,12 v 40 c 0,6.6 5.4,12 12,12 h 84 v 84 c 0,6.6 5.4,12 12,12 h 40 c 6.6,0 12,-5.4 12,-12 V 24 C 448,10.7 437.3,0 424,0 H 300 c -6.6,0 -12,5.4 -12,12 z m 148,276 h -40 c -6.6,0 -12,5.4 -12,12 v 84 h -84 c -6.6,0 -12,5.4 -12,12 v 40 c 0,6.6 5.4,12 12,12 h 124 c 13.3,0 24,-10.7 24,-24 V 300 c 0,-6.6 -5.4,-12 -12,-12 z M 160,436 v -40 c 0,-6.6 -5.4,-12 -12,-12 H 64 v -84 c 0,-6.6 -5.4,-12 -12,-12 H 12 c -6.6,0 -12,5.4 -12,12 v 124 c 0,13.3 10.7,24 24,24 h 124 c 6.6,0 12,-5.4 12,-12 z"
     id="path2"
     inkscape:connector-curvature="0"
     style="fill:#ffffff;fill-opacity:1" />
</svg>
