<?xml version="1.0" encoding="UTF-8" standalone="no"?>
<!-- Generator: Adobe Illustrator 19.0.0, SVG Export Plug-In . SVG Version: 6.00 Build 0)  -->

<svg
   xmlns:dc="http://purl.org/dc/elements/1.1/"
   xmlns:cc="http://creativecommons.org/ns#"
   xmlns:rdf="http://www.w3.org/1999/02/22-rdf-syntax-ns#"
   xmlns:svg="http://www.w3.org/2000/svg"
   xmlns="http://www.w3.org/2000/svg"
   xmlns:sodipodi="http://sodipodi.sourceforge.net/DTD/sodipodi-0.dtd"
   xmlns:inkscape="http://www.inkscape.org/namespaces/inkscape"
   version="1.1"
   id="Capa_1"
   x="0px"
   y="0px"
   viewBox="0 0 383.73886 383.78122"
   xml:space="preserve"
   sodipodi:docname="send-white.svg"
   inkscape:version="0.92.4 (5da689c313, 2019-01-14)"
   width="383.73886"
   height="383.78122"><metadata
   id="metadata51"><rdf:RDF><cc:Work
       rdf:about=""><dc:format>image/svg+xml</dc:format><dc:type
         rdf:resource="http://purl.org/dc/dcmitype/StillImage" /><dc:title /></cc:Work></rdf:RDF></metadata><defs
   id="defs49">
	

		
	
			
			
			
			
		</defs><sodipodi:namedview
   pagecolor="#ffffff"
   bordercolor="#666666"
   borderopacity="1"
   objecttolerance="10"
   gridtolerance="10"
   guidetolerance="10"
   inkscape:pageopacity="0"
   inkscape:pageshadow="2"
   inkscape:window-width="640"
   inkscape:window-height="480"
   id="namedview47"
   showgrid="false"
   inkscape:zoom="0.83306151"
   inkscape:cx="-71.98767"
   inkscape:cy="212.8395"
   inkscape:current-layer="Capa_1"
   inkscape:pagecheckerboard="true"
   fit-margin-top="0"
   fit-margin-left="0"
   fit-margin-right="0"
   fit-margin-bottom="0" />
<path
   style="fill:#ffffff;fill-opacity:1"
   d="M 367.89858,0.00669938 C 336.83168,8.0297663 307.11409,20.617343 276.4874,30.180002 186.42031,61.166798 95.85283,90.913017 6.2052184,122.98522 c -10.8077735,7.13541 -6.6898005,26.65149 6.1171876,28.74414 53.017578,20.37109 106.035154,40.74219 159.052734,61.11328 24.52817,55.31361 46.8922,111.69466 72.87891,166.29297 8.21969,9.36009 26.19593,3.62693 27.52343,-8.74414 C 308.93284,252.43374 347.51147,134.90191 383.70326,16.651231 384.3289,8.0100252 376.61195,-0.26901752 367.89858,0.00669938 Z M 179.4103,181.64928 C 140.51316,166.70136 101.61603,151.75345 62.71889,136.80553 144.41355,108.95592 226.10821,81.106308 307.80287,53.256699 265.00535,96.054225 222.20782,138.85175 179.4103,181.64928 Z m 74.08398,140.64453 C 236.45457,282.84329 219.41485,243.39277 202.37514,203.94225 245.77813,160.536 289.18113,117.12975 332.58412,73.723496 306.22084,156.58027 279.85756,239.43704 253.49428,322.29381 Z"
   id="path2"
   inkscape:connector-curvature="0" />
<g
   id="g16"
   transform="translate(7.7755309,7.9930275)">
</g>
<g
   id="g18"
   transform="translate(7.7755309,7.9930275)">
</g>
<g
   id="g20"
   transform="translate(7.7755309,7.9930275)">
</g>
<g
   id="g22"
   transform="translate(7.7755309,7.9930275)">
</g>
<g
   id="g24"
   transform="translate(7.7755309,7.9930275)">
</g>
<g
   id="g26"
   transform="translate(7.7755309,7.9930275)">
</g>
<g
   id="g28"
   transform="translate(7.7755309,7.9930275)">
</g>
<g
   id="g30"
   transform="translate(7.7755309,7.9930275)">
</g>
<g
   id="g32"
   transform="translate(7.7755309,7.9930275)">
</g>
<g
   id="g34"
   transform="translate(7.7755309,7.9930275)">
</g>
<g
   id="g36"
   transform="translate(7.7755309,7.9930275)">
</g>
<g
   id="g38"
   transform="translate(7.7755309,7.9930275)">
</g>
<g
   id="g40"
   transform="translate(7.7755309,7.9930275)">
</g>
<g
   id="g42"
   transform="translate(7.7755309,7.9930275)">
</g>
<g
   id="g44"
   transform="translate(7.7755309,7.9930275)">
</g>
</svg>