<?xml version="1.0" encoding="UTF-8" standalone="no"?>
<!-- Created with Inkscape (http://www.inkscape.org/) -->

<svg
   xmlns:dc="http://purl.org/dc/elements/1.1/"
   xmlns:cc="http://creativecommons.org/ns#"
   xmlns:rdf="http://www.w3.org/1999/02/22-rdf-syntax-ns#"
   xmlns:svg="http://www.w3.org/2000/svg"
   xmlns="http://www.w3.org/2000/svg"
   xmlns:sodipodi="http://sodipodi.sourceforge.net/DTD/sodipodi-0.dtd"
   xmlns:inkscape="http://www.inkscape.org/namespaces/inkscape"
   width="332.05933"
   height="246.95451"
   viewBox="0 0 87.857359 65.340049"
   version="1.1"
   id="svg8"
   sodipodi:docname="white-mulberry.svg"
   inkscape:version="0.92.4 (5da689c313, 2019-01-14)"
   inkscape:export-filename="C:\Users\Administrator\Downloads\SilkPhuongMai-master\mockup.png"
   inkscape:export-xdpi="96"
   inkscape:export-ydpi="96">
  <defs
     id="defs2">
    <linearGradient
       y2="1"
       y1="-0.10958999"
       x2="0.5"
       x1="0.5"
       id="a">
      <stop
         id="stop2"
         offset="0%"
         stop-opacity=".25"
         stop-color="#57BBC1" />
      <stop
         id="stop4"
         offset="100%"
         stop-color="#015871" />
    </linearGradient>
    <filter
       style="color-interpolation-filters:sRGB"
       inkscape:label="Drop Shadow"
       id="filter4543">
      <feFlood
         flood-opacity="0.156863"
         flood-color="rgb(0,0,0)"
         result="flood"
         id="feFlood4533" />
      <feComposite
         in="flood"
         in2="SourceGraphic"
         operator="in"
         result="composite1"
         id="feComposite4535" />
      <feGaussianBlur
         in="composite1"
         stdDeviation="4"
         result="blur"
         id="feGaussianBlur4537" />
      <feOffset
         dx="0"
         dy="0"
         result="offset"
         id="feOffset4539" />
      <feComposite
         in="SourceGraphic"
         in2="offset"
         operator="over"
         result="composite2"
         id="feComposite4541" />
    </filter>
    <filter
       style="color-interpolation-filters:sRGB"
       inkscape:label="Drop Shadow"
       id="filter4555">
      <feFlood
         flood-opacity="0.156863"
         flood-color="rgb(0,0,0)"
         result="flood"
         id="feFlood4545" />
      <feComposite
         in="flood"
         in2="SourceGraphic"
         operator="in"
         result="composite1"
         id="feComposite4547" />
      <feGaussianBlur
         in="composite1"
         stdDeviation="4"
         result="blur"
         id="feGaussianBlur4549" />
      <feOffset
         dx="0"
         dy="0"
         result="offset"
         id="feOffset4551" />
      <feComposite
         in="SourceGraphic"
         in2="offset"
         operator="over"
         result="composite2"
         id="feComposite4553" />
    </filter>
    <filter
       id="filter829"
       inkscape:label="Drop Shadow"
       style="color-interpolation-filters:sRGB">
      <feFlood
         id="feFlood819"
         result="flood"
         flood-color="rgb(0,0,0)"
         flood-opacity="0.156863" />
      <feComposite
         id="feComposite821"
         result="composite1"
         operator="in"
         in2="SourceGraphic"
         in="flood" />
      <feGaussianBlur
         id="feGaussianBlur823"
         result="blur"
         stdDeviation="4"
         in="composite1" />
      <feOffset
         id="feOffset825"
         result="offset"
         dy="0"
         dx="0" />
      <feComposite
         id="feComposite827"
         result="composite2"
         operator="over"
         in2="offset"
         in="SourceGraphic" />
    </filter>
    <mask
       maskUnits="userSpaceOnUse"
       id="mask4622">
      <rect
         y="304.18933"
         x="-172.10712"
         height="109.01493"
         width="1024"
         id="rect4624"
         style="opacity:1;fill:#ffffff;fill-opacity:1;stroke-width:1.13137078" />
    </mask>
    <mask
       maskUnits="userSpaceOnUse"
       id="mask4626">
      <rect
         style="opacity:1;fill:#ffffff;fill-opacity:1;stroke-width:1.13137078"
         id="rect4628"
         width="1024"
         height="109.01493"
         x="576"
         y="-3.1612944e-06" />
    </mask>
  </defs>
  <sodipodi:namedview
     id="base"
     pagecolor="#ffffff"
     bordercolor="#666666"
     borderopacity="1.0"
     inkscape:pageopacity="0.0"
     inkscape:pageshadow="2"
     inkscape:zoom="0.70666666"
     inkscape:cx="60.612325"
     inkscape:cy="175.02255"
     inkscape:document-units="px"
     inkscape:current-layer="layer1"
     showgrid="false"
     units="px"
     inkscape:snap-page="true"
     inkscape:object-paths="true"
     inkscape:window-width="1920"
     inkscape:window-height="1017"
     inkscape:window-x="-8"
     inkscape:window-y="-8"
     inkscape:window-maximized="1"
     inkscape:snap-global="false"
     inkscape:pagecheckerboard="true"
     fit-margin-top="0"
     fit-margin-left="0"
     fit-margin-right="0"
     fit-margin-bottom="0" />
  <metadata
     id="metadata5">
    <rdf:RDF>
      <cc:Work
         rdf:about="">
        <dc:format>image/svg+xml</dc:format>
        <dc:type
           rdf:resource="http://purl.org/dc/dcmitype/StillImage" />
        <dc:title></dc:title>
      </cc:Work>
    </rdf:RDF>
  </metadata>
  <g
     inkscape:groupmode="layer"
     id="layer3"
     inkscape:label="right"
     transform="translate(-211.05752,195.26105)" />
  <g
     inkscape:label="navbar"
     inkscape:groupmode="layer"
     id="layer1"
     transform="translate(-211.05752,57.011074)"
     style="opacity:1">
    <path
       inkscape:connector-curvature="0"
       id="path4947"
       d="m 248.1493,-35.126908 c -0.0629,-0.214579 -0.18259,-0.567212 0.10312,-0.67197 0.32963,-0.240001 0.63946,-0.586162 0.65559,-1.014019 -0.27906,-0.07381 -0.46175,-0.439207 -0.17991,-0.627136 0.37833,-0.492066 0.76144,-1.016207 0.88479,-1.637667 -0.14629,-0.198656 -0.43766,-0.425255 -0.28446,-0.698966 0.0975,-0.43098 0.0187,-0.907641 -0.25355,-1.261523 -0.13451,-0.658165 0.11676,-1.393158 -0.27344,-1.992684 -0.16157,-0.221552 -0.38742,-0.432329 -0.37519,-0.730444 -0.0651,-0.55401 -0.15571,-1.164503 -0.5525,-1.585917 -0.23352,-0.197835 -0.64434,-0.141938 -0.76754,-0.468157 -0.23411,-0.685989 -0.50704,-1.430076 -1.12951,-1.859837 -0.24344,0.04131 -0.62783,0.129842 -0.73769,-0.173826 -0.38703,-0.523341 -0.89147,-0.991442 -1.51816,-1.202236 -0.30175,-0.01652 -0.3647,0.34467 -0.42816,0.568286 -0.29989,-0.02161 -0.37412,-0.391342 -0.59519,-0.546975 -0.64848,-0.732246 -1.29812,-1.463717 -1.92136,-2.217723 -0.21099,0.08772 -0.42798,0.394763 -0.67026,0.213182 -0.58509,-0.850271 -1.14682,-1.733486 -1.91203,-2.437137 -0.30143,-0.175849 -0.28862,0.399485 -0.52304,0.374074 -0.28277,-0.131295 -0.42085,-0.440521 -0.6783,-0.608572 -0.35092,-0.325249 -0.72599,-0.644809 -1.18207,-0.810039 -0.20842,0.09375 -0.30669,0.591687 -0.59131,0.329297 -0.43947,-0.28115 -0.83431,-0.645759 -1.33275,-0.823169 -0.28152,0.0086 -0.0632,0.511372 -0.34193,0.482321 -0.54536,-0.329679 -1.03151,-0.761564 -1.61113,-1.039603 -0.54636,-0.288631 -1.14129,-0.505605 -1.76186,-0.548302 0.22476,0.225126 0.57875,0.234684 0.80243,0.464346 1.12519,0.76295 1.73712,2.019772 2.46085,3.126447 0.36003,0.551488 0.57093,1.180089 0.74603,1.809213 0.15235,0.410592 0.37439,0.793391 0.6448,1.137282 0.30605,-0.0064 0.28248,-0.401588 0.47573,-0.557327 0.40779,-0.640533 0.78955,-1.382965 0.67668,-2.166413 0.0745,-0.254346 0.16896,0.287799 0.1147,0.382362 -0.0153,0.811415 -0.45604,1.522738 -0.81744,2.221856 -0.21136,0.168236 -0.26439,0.534237 -0.0397,0.714296 1.05192,1.652548 2.14087,3.285983 3.05098,5.023225 0.20124,0.259065 0.40128,-0.161826 0.39777,-0.350246 0.55044,-1.461555 0.39141,-3.071463 0.0387,-4.559171 -0.16404,-0.851455 -0.29766,-1.708191 -0.4303,-2.564972 0.22381,1.57932 0.70491,3.107286 0.97911,4.676271 0.1067,1.141716 -0.20586,2.274183 -0.63224,3.322813 0.18656,0.598596 0.5129,1.1454 0.66199,1.757674 0.353,1.074709 0.56513,2.188959 0.89794,3.269548 0.36633,-0.356802 0.56197,-0.842873 0.838,-1.265652 1.01426,-1.828413 1.42807,-3.928002 1.54445,-5.997912 0.0293,-0.861872 -0.20161,-1.726996 -0.66405,-2.455813 -0.3016,-0.53679 -0.662,-1.037367 -0.99979,-1.551421 0.57602,0.803399 1.27723,1.542366 1.63544,2.479197 0.0243,0.344057 0.47558,0.205216 0.66715,0.08628 0.34931,-0.178681 0.59817,-0.514569 0.72141,-0.882132 0.11254,0.112672 -0.13107,0.395362 -0.15531,0.568946 -0.18282,0.344694 -0.58735,0.44221 -0.92441,0.558896 -0.25169,0.204992 -0.0551,0.548323 -0.0906,0.816695 0.0257,2.187707 -0.36607,4.418468 -1.40403,6.362643 -0.27967,0.561113 -0.65006,1.070873 -0.99317,1.591098 -0.0959,0.32168 0.13048,0.623681 0.18302,0.93424 0.51367,1.71088 1.06548,3.419995 1.86025,5.024324 0.29354,-0.121488 0.19348,-0.504344 0.3379,-0.730841 0.41206,-1.425187 0.44078,-2.958526 1.08747,-4.313885 0.3188,-0.339106 0.0506,-0.84725 0.26968,-1.228975 0.43173,-1.295928 1.17126,-2.48638 1.43638,-3.836627 0.10883,-0.600213 -0.0186,-1.211188 0.0764,-1.813694 0.0326,-0.410746 0.151,-0.831214 -0.002,-1.232775 -0.0746,-0.214968 -0.10875,-0.537731 0.0234,-0.163154 0.0696,0.177649 0.15037,0.522135 0.40346,0.441575 0.404,0.04482 0.0288,0.07507 -0.1192,0.187252 -0.2133,0.267787 -0.16455,0.644215 -0.22282,0.964077 -0.0358,0.385044 -0.0222,0.773002 0.017,1.15721 -0.14083,0.259423 0.29902,0.514406 0.46928,0.285263 0.44263,-0.18368 0.78061,-0.537099 1.09634,-0.885687 -0.13416,-0.30752 0.28699,-0.279643 0.28556,-0.01364 0.19622,0.1795 0.45102,0.286256 0.62859,0.487791 -0.28107,-0.07733 -0.48817,-0.344059 -0.79248,-0.347764 -0.41549,0.241814 -0.65721,0.709349 -1.12054,0.883285 -0.34141,0.162951 -0.64612,0.433241 -0.73817,0.812658 -0.45425,1.17876 -1.02105,2.31614 -1.38266,3.528989 0.13885,0.253364 0.43043,0.02159 0.58973,-0.08884 0.70028,-0.421066 1.41251,-0.821849 2.12108,-1.228734 0.53859,-0.733945 1.08383,-1.472938 1.47259,-2.300286 -0.12113,0.377981 -0.38198,0.70876 -0.41978,1.112586 0.15535,0.107112 0.53425,0.421162 0.11494,0.214409 -0.27083,-0.122032 -0.4917,0.156814 -0.57508,0.382986 -0.11391,0.172022 -0.4195,0.432835 -0.19365,0.628887 0.18801,0.179288 0.49612,0.206294 0.65625,0.407302 -0.35361,-0.05709 -0.65723,-0.349893 -1.02517,-0.30806 -0.7962,0.526562 -1.63677,1.01151 -2.42853,1.555738 -0.39116,0.214694 -0.54966,0.672852 -0.69285,1.069931 -0.19316,0.672304 -0.2911,1.3676 -0.45365,2.047537 -0.129,0.637849 -0.25529,1.277214 -0.43486,1.903205 0.87613,-0.737406 1.29376,-1.853962 2.08085,-2.666862 0.45227,-0.43021 1.01429,-0.720258 1.57658,-0.979302 0.39412,-0.495498 0.75052,-1.109182 1.39173,-1.30901 -0.11819,0.259384 -0.43825,0.346729 -0.59538,0.58275 -0.17162,0.224629 -0.4934,0.37137 -0.39735,0.69684 -0.0186,0.313936 -0.38556,0.178875 -0.57616,0.302258 -0.98964,0.337033 -1.66087,1.205588 -2.17683,2.071472 -0.41843,0.635452 -0.93474,1.19747 -1.44053,1.761646 -0.18865,0.200172 -0.11956,0.603201 0.18348,0.62746 0.3194,-0.05097 0.57249,-0.291658 0.8318,-0.470969 1.01149,-0.802267 1.71027,-1.999362 2.92819,-2.531175 0.36243,-0.185924 0.77076,-0.258726 1.15638,-0.360704 0.11631,-0.06869 0.22676,-0.164959 0.28302,-0.290235 z m -5.71496,3.793996 c -0.1965,-0.475344 -0.81588,-0.605946 -1.26072,-0.431092 -1.3902,0.207539 -2.73874,-0.325162 -4.02072,-0.790217 -0.25442,-0.148273 0.39259,0.07391 0.50486,0.102818 1.08451,0.31909 2.21154,0.705125 3.35661,0.499919 0.1409,-0.044 0.71093,0.01471 0.55176,-0.151015 -0.6078,-0.398458 -1.21556,-0.796922 -1.82336,-1.195381 -1.31886,-0.172505 -2.61691,-0.554694 -3.7832,-1.201163 -0.12647,-0.06314 -0.80735,-0.369763 -0.38893,-0.207686 1.22487,0.447452 2.43888,1.030843 3.7582,1.115153 0.26382,-0.105754 -0.15632,-0.365535 -0.22311,-0.515184 -0.69066,-0.847044 -1.50171,-1.586539 -2.33917,-2.283343 -0.17016,-0.220098 -0.45706,-0.361715 -0.7335,-0.280509 -0.98726,0.05751 -1.99462,-0.07523 -2.9092,-0.46138 0.84592,0.166411 1.70873,0.382952 2.576,0.261374 0.24641,0.131203 0.62358,-0.176851 0.26506,-0.336364 -1.44174,-1.202101 -3.11551,-2.070692 -4.66921,-3.111999 -0.14733,-0.0979 -0.78631,-0.497718 -0.32709,-0.22338 1.59164,0.947172 3.23255,1.823012 4.74255,2.898526 1.44988,1.243066 2.89147,2.516046 4.0892,4.011334 0.61544,0.534832 1.3568,0.888313 2.02739,1.344302 0.24919,-0.119164 -0.17096,-0.439129 -0.15876,-0.650596 -0.56719,-1.349373 -1.01819,-2.743888 -1.42057,-4.150211 -1.30353,-0.643602 -2.33338,-1.692963 -3.38214,-2.673415 -1.57145,-1.300042 -3.44384,-2.149805 -5.1532,-3.242397 -0.0692,-0.13529 -0.59718,-0.0673 -0.35113,-0.214095 0.29183,-0.150807 -0.12655,-0.386997 -0.20207,-0.557939 -0.25849,-0.347192 -0.50619,-0.702233 -0.75893,-1.053601 0.41805,0.536514 0.83608,1.073007 1.25412,1.609511 1.83007,1.138762 3.79948,2.071217 5.4867,3.427083 0.82986,0.718745 1.56104,1.569098 2.52108,2.123687 0.10971,0.279721 0.63852,0.159092 0.4167,-0.160343 -0.34182,-1.139845 -0.56466,-2.312217 -0.90552,-3.452887 -0.10455,-0.296746 -0.13201,-0.625786 -0.28083,-0.902514 -0.26444,-0.290286 -0.67225,-0.381326 -0.99442,-0.592912 -1.75489,-0.930996 -3.48251,-1.914693 -5.24825,-2.823945 -0.52366,-0.283158 -0.95266,-0.708986 -1.28494,-1.198881 -0.11258,-0.145833 -0.52142,-0.651343 -0.18843,-0.271111 0.57063,0.630713 1.15444,1.310514 1.97522,1.614278 1.70866,0.843662 3.35173,1.812632 5.05692,2.663287 0.19301,0.05719 0.75486,0.518375 0.49793,0.08255 -0.63618,-1.478861 -1.54075,-2.817619 -2.33123,-4.214482 -0.0689,-0.32617 -0.47525,-0.292462 -0.73094,-0.304389 -1.28831,-0.111525 -2.40099,-0.876342 -3.33337,-1.72133 -0.15864,-0.129099 -0.3972,-0.349361 -0.0923,-0.111026 0.98403,0.722705 2.01746,1.503097 3.26607,1.658708 0.19447,0.07457 0.6374,-0.0046 0.40968,-0.281044 -0.53858,-0.857742 -1.13761,-1.675697 -1.67762,-2.53256 -0.0254,-0.280689 -0.29584,-0.511876 -0.57762,-0.455777 -0.64013,-0.0865 -1.19674,-0.467247 -1.65268,-0.905935 0.54528,0.369983 1.14627,0.695287 1.80921,0.778703 0.29407,-0.140187 0.0676,-0.499562 0.004,-0.718422 -0.28539,-0.749719 -0.8009,-1.378927 -1.17291,-2.084338 -0.53379,-0.894877 -1.18843,-1.775961 -2.13334,-2.265717 -0.13525,-0.157848 -0.50951,-0.166678 -0.2041,0.05874 0.65499,0.764513 0.80989,1.818228 1.42738,2.604909 0.21748,0.289098 -0.19618,0.360367 -0.34309,0.512865 -0.28898,0.35226 -0.0637,0.843038 0.15553,1.171074 0.23897,0.191253 0.0468,0.508905 -0.23727,0.419373 -0.31435,-0.03638 -0.44381,0.338592 -0.48249,0.589346 -0.13373,0.674105 -0.0899,1.370335 -0.0481,2.049623 -0.006,0.306774 -0.38476,-0.01756 -0.49763,-0.100886 -0.30685,-0.0536 -0.43692,0.305086 -0.38383,0.551773 0.0116,0.65362 0.23799,1.274107 0.40825,1.897799 -0.22557,-0.01049 -0.37651,-0.338446 -0.64736,-0.24727 -0.32967,0.05598 -0.30537,0.461511 -0.2507,0.711259 0.14039,0.547599 0.39506,1.058895 0.65407,1.557604 -0.13926,0.02191 -0.37651,-0.261942 -0.58683,-0.284338 -0.21678,-0.09217 -0.53917,-0.05303 -0.51278,0.247586 0.004,0.433291 0.29337,0.796839 0.48556,1.167145 0.0761,0.186026 0.46457,0.554527 0.0523,0.379494 -0.35375,-0.0072 -0.66609,0.383667 -0.49674,0.719534 0.15866,0.802257 0.70041,1.443477 1.13267,2.113024 0.30331,0.08108 0.14861,0.562062 -0.14697,0.440681 -0.29942,0.08553 -0.3773,0.506763 -0.16083,0.716487 0.1791,0.331257 0.48213,0.566455 0.74499,0.82743 0.3036,0.03123 0.22393,0.49712 -0.0223,0.562951 -0.0346,0.364825 0.36457,0.526102 0.6287,0.667982 0.2052,0.187192 -0.16489,0.531677 0.13664,0.680411 0.32332,0.261752 0.73251,0.386901 1.10635,0.55349 -0.0982,0.112116 -0.47199,0.315759 -0.16032,0.525839 0.51656,0.329451 1.11726,0.491222 1.70326,0.652207 0.0204,0.226606 -0.43613,0.462954 -0.10301,0.64186 0.45023,0.334815 1.00091,0.479856 1.51772,0.677069 0.36589,-0.04571 0.0867,0.485058 0.36194,0.578258 0.32434,0.17824 0.708,0.204379 1.06511,0.275181 0.2739,-0.02701 0.36652,0.0677 0.19909,0.28396 -0.0242,0.323453 0.33275,0.363272 0.56087,0.437441 1.23952,0.38117 2.56226,0.33454 3.83686,0.199758 0.36183,-0.05178 0.71639,-0.145787 1.0644,-0.256287 l -0.0169,-0.04532 z"
       style="opacity:1;fill:#12b1eb;fill-opacity:1;stroke:none;stroke-width:0.66145831;stroke-linecap:butt;stroke-linejoin:miter;stroke-miterlimit:4;stroke-dasharray:none;stroke-opacity:1;paint-order:markers stroke fill" />
    <path
       style="opacity:1;fill:#12b1eb;fill-opacity:1;stroke:none;stroke-width:1.32291663;stroke-miterlimit:4;stroke-dasharray:none;stroke-opacity:1;paint-order:markers stroke fill"
       d="m 242.35145,-27.636197 a 1.9422538,1.9422538 0 0 0 -1.49986,0.464247 1.9422538,1.9422538 0 0 0 -0.89666,-0.431619 1.9422538,1.9422538 0 0 0 -2.27113,1.544584 1.9422538,1.9422538 0 0 0 -0.0189,0.11893 1.9422538,1.9422538 0 0 0 -0.0722,-0.01751 1.9422538,1.9422538 0 0 0 -0.73578,0.0029 c -0.0514,0.598465 -0.15741,1.195426 -0.35892,1.777477 l -2.9e-4,0.002 -5.8e-4,0.0041 c -0.0297,0.08136 -0.063,0.243399 -0.16203,0.418616 -0.0495,0.08761 -0.12265,0.183941 -0.23694,0.25458 -0.1,0.06179 -0.22927,0.07972 -0.3542,0.0762 -0.0671,0.306684 -0.11669,0.68383 -0.32273,1.052969 -0.0464,0.107636 -0.13328,0.191495 -0.22124,0.246885 a 0.1984375,0.1984375 0 0 1 -0.21206,0.122923 0.1984375,0.1984375 0 0 1 -0.0912,-0.03795 c -0.0169,3.48e-4 -0.0353,9.56e-4 -0.0508,0.0012 l -0.006,0.01119 c -0.16075,0.380731 -0.30678,0.816696 -0.55386,1.229561 a 1.9422538,1.9422538 0 0 0 0.0261,0.05536 1.9422538,1.9422538 0 0 0 -0.0771,0.02824 c -0.048,0.07516 -0.0989,0.149596 -0.15514,0.222309 -0.0807,0.131698 -0.23113,0.265167 -0.40566,0.274035 -0.071,0.0036 -0.12771,-0.008 -0.17762,-0.0246 a 1.9422538,1.9422538 0 0 0 -0.51685,0.99002 1.9422538,1.9422538 0 0 0 0.30304,1.455147 1.9422538,1.9422538 0 0 0 -1.1105,1.404997 1.9422538,1.9422538 0 0 0 0.2451,1.362926 1.9422538,1.9422538 0 0 0 -1.31151,1.483034 1.9422538,1.9422538 0 0 0 0.98845,2.074001 1.9422538,1.9422538 0 0 0 -0.67486,1.13677 1.9422538,1.9422538 0 0 0 1.544,2.2715731 1.9422538,1.9422538 0 0 0 1.04961,-0.092659 1.9422538,1.9422538 0 0 0 1.57683,1.9693349 1.9422538,1.9422538 0 0 0 1.99278,-0.8532832 1.9422538,1.9422538 0 0 0 0.90397,0.4389168 1.9422538,1.9422538 0 0 0 2.27165,-1.544511 1.9422538,1.9422538 0 0 0 0.0305,-0.437218 1.9422538,1.9422538 0 0 0 2.19804,-1.5554446 1.9422538,1.9422538 0 0 0 0.0261,-0.534921 1.9422538,1.9422538 0 0 0 0.21733,-0.115917 c 0.004,-0.04194 0.008,-0.08447 0.014,-0.12484 0.0605,-0.756487 0.11974,-1.533034 0.30637,-2.306295 l 0.0234,-0.09533 0.0279,-0.02737 c -0.75688,0.09899 -1.29881,-0.772865 -0.92146,-1.411098 0.11678,-0.389109 0.25962,-0.758581 0.39528,-1.119427 l 0.0165,-0.04307 -0.12771,-0.130274 c -0.23158,-0.238937 -0.28623,-0.570296 -0.23138,-0.847426 0.0481,-0.243089 0.17095,-0.460362 0.34831,-0.628692 0.006,-0.02122 0.007,-0.04597 -0.007,-0.09646 -0.0192,-0.07072 -0.0684,-0.170399 -0.12651,-0.264235 l -0.0532,-0.08477 0.003,-0.101879 c 0.0132,-0.343055 0.18467,-0.608847 0.35282,-0.808115 0.16814,-0.199265 0.34036,-0.355959 0.4389,-0.494274 l 0.0441,-0.06057 -0.076,-0.11931 c -0.15811,-0.250084 -0.11402,-0.558893 -0.007,-0.756749 0.10673,-0.197869 0.2577,-0.336742 0.39155,-0.43991 0.32788,-0.339063 0.67824,-0.63611 1.00709,-0.928508 l 0.0431,-0.03931 c -0.19493,-0.192779 -0.28389,-0.457985 -0.2395,-0.690435 0.0446,-0.233399 0.18117,-0.45601 0.4124,-0.579962 0.44154,-0.424422 0.89566,-0.826772 1.34446,-1.228901 -0.008,-0.132722 -0.0197,-0.26653 4.6e-4,-0.405458 a 1.9422538,1.9422538 0 0 0 -0.27623,-0.09492 1.9422538,1.9422538 0 0 0 -1.55407,-2.207759 1.9422538,1.9422538 0 0 0 -1.06934,0.09926 1.9422538,1.9422538 0 0 0 -1.22353,-0.792045 1.9422538,1.9422538 0 0 0 -0.13582,-0.0213 z m -0.0555,0.521368 a 0.1984375,0.1984375 0 0 1 0.1687,0.224273 0.1984375,0.1984375 0 0 1 -0.22428,0.168691 0.1984375,0.1984375 0 0 1 -0.16869,-0.224273 0.1984375,0.1984375 0 0 1 0.22427,-0.168691 z m -2.91073,0.02252 a 0.1984375,0.1984375 0 0 1 0.16869,0.224272 0.1984375,0.1984375 0 0 1 -0.22427,0.168691 0.1984375,0.1984375 0 0 1 -0.16869,-0.224273 0.1984375,0.1984375 0 0 1 0.22427,-0.16869 z m 5.83279,1.059345 a 0.1984375,0.1984375 0 0 1 0.1687,0.224273 0.1984375,0.1984375 0 0 1 -0.22428,0.168691 0.1984375,0.1984375 0 0 1 -0.16869,-0.224273 0.1984375,0.1984375 0 0 1 0.22427,-0.168691 z m 2.03124,1.848853 c 0.002,0.02621 6.8e-4,0.05318 0.005,0.07841 l 0.0266,0.177551 -0.13175,0.119671 c -0.49494,0.444274 -0.9905,0.879641 -1.46051,1.33357 l -0.0437,0.0434 -0.0565,0.02332 c -0.0278,0.0118 -0.0715,0.06555 -0.0834,0.128593 -0.007,0.03521 -0.004,0.05854 0.002,0.07695 0.10689,0.03963 0.2035,0.106912 0.25854,0.190533 0.0892,0.135529 0.10569,0.275595 0.0904,0.405256 -0.015,0.129719 -0.0613,0.260383 -0.17474,0.371936 -0.0676,0.06646 -0.1698,0.111515 -0.27782,0.130325 -0.32278,0.284388 -0.6425,0.554916 -0.9198,0.846388 l -0.0163,0.0191 -0.0199,0.01494 c -0.0836,0.06442 -0.17544,0.162405 -0.21213,0.230428 -0.0304,0.05621 -0.0255,0.05562 -0.0145,0.0731 0.0466,0.03201 0.11457,0.03512 0.14685,0.07609 0.0902,0.114368 0.12856,0.244027 0.13323,0.371654 0.005,0.127612 -0.0242,0.259219 -0.10537,0.379658 -0.0534,0.07925 -0.13706,0.147287 -0.23388,0.192383 -0.14169,0.178938 -0.29364,0.320957 -0.40359,0.451254 -0.11467,0.135961 -0.16273,0.243263 -0.17825,0.367263 0.0494,0.08975 0.10434,0.172804 0.1367,0.291771 0.0486,0.17904 0.0525,0.412528 -0.0665,0.621579 l -0.0315,0.05661 -0.0491,0.04056 c -0.0828,0.06557 -0.16337,0.194222 -0.18571,0.309317 -0.0195,0.09856 0.007,0.160657 0.0498,0.21998 0.0477,0.01603 0.10856,-0.0034 0.14657,0.02282 0.12267,0.08459 0.19465,0.198644 0.23664,0.319476 0.042,0.120842 0.0558,0.255982 0.0149,0.396668 -0.0264,0.09094 -0.0864,0.181934 -0.16649,0.254626 -0.13125,0.347496 -0.26211,0.686925 -0.36165,1.025544 l -0.0148,0.04906 -0.0304,0.04528 c -0.0961,0.139421 0.0841,0.473686 0.26064,0.445 l -0.0637,0.01865 c 0.15247,-0.05809 0.32732,-0.04386 0.45708,0.01924 0.12975,0.0631 0.22139,0.16082 0.2832,0.27074 0.0362,0.06432 0.0615,0.138936 0.0758,0.216875 a 1.9422538,1.9422538 0 0 0 0.65889,-1.11972 1.9422538,1.9422538 0 0 0 -0.23338,-1.342478 1.9422538,1.9422538 0 0 0 1.34599,-1.494335 1.9422538,1.9422538 0 0 0 -0.24554,-1.36351 1.9422538,1.9422538 0 0 0 1.31195,-1.482451 1.9422538,1.9422538 0 0 0 -0.0835,-1.022222 1.9422538,1.9422538 0 0 0 0.74247,-1.186704 1.9422538,1.9422538 0 0 0 -0.51796,-1.714143 z m -11.087,-1.486242 a 1.9422538,1.9422538 0 0 0 -0.4424,0.400882 c -0.13151,0.382062 -0.28019,0.750433 -0.42722,1.112819 a 1.9422538,1.9422538 0 0 0 -0.003,0.08778 c 0.005,-0.0047 0.009,-0.01006 0.0151,-0.01456 0.11769,-0.08432 0.28088,-0.08792 0.3847,-0.05571 0.0317,0.0099 0.0498,0.03105 0.0767,0.04425 0.0269,-0.05465 0.0591,-0.164835 0.10745,-0.298468 0.14269,-0.412151 0.23317,-0.840138 0.28866,-1.276989 z m 5.86549,0.924101 a 0.1984375,0.1984375 0 0 1 0.16869,0.224273 0.1984375,0.1984375 0 0 1 -0.22427,0.16869 0.1984375,0.1984375 0 0 1 -0.16869,-0.224273 0.1984375,0.1984375 0 0 1 0.22427,-0.16869 z m -2.49859,0.315155 a 0.1984375,0.1984375 0 0 1 0.0138,0.002 0.1984375,0.1984375 0 0 1 0.16869,0.224273 0.1984375,0.1984375 0 0 1 -0.22428,0.168691 0.1984375,0.1984375 0 0 1 -0.16869,-0.224273 0.1984375,0.1984375 0 0 1 0.21046,-0.170644 z m 7.3071,1.133746 a 0.1984375,0.1984375 0 0 1 0.16869,0.224273 0.1984375,0.1984375 0 0 1 -0.22427,0.168691 0.1984375,0.1984375 0 0 1 -0.16869,-0.224273 0.1984375,0.1984375 0 0 1 0.22427,-0.168691 z m -2.47519,0.485478 a 0.1984375,0.1984375 0 0 1 0.16869,0.224273 0.1984375,0.1984375 0 0 1 -0.22427,0.168691 0.1984375,0.1984375 0 0 1 -0.16869,-0.224273 0.1984375,0.1984375 0 0 1 0.22427,-0.168691 z m -9.33028,-0.445512 A 1.9422538,1.9422538 0 0 0 234.34336,-22.53 c 0.0255,-0.02917 0.0522,-0.05689 0.0833,-0.0759 0.1479,-0.09042 0.26051,-0.08291 0.33993,-0.08605 0.0485,-0.0019 0.0593,-0.0041 0.0833,-0.006 0.0829,-0.149899 0.13303,-0.346447 0.18091,-0.559471 z m 6.74759,0.982586 a 0.1984375,0.1984375 0 0 1 0.1687,0.224273 0.1984375,0.1984375 0 0 1 -0.22428,0.168691 0.1984375,0.1984375 0 0 1 -0.16869,-0.224273 0.1984375,0.1984375 0 0 1 0.22427,-0.168691 z m -4.03011,-0.336217 a 0.1984375,0.1984375 0 0 1 0.16869,0.224272 0.1984375,0.1984375 0 0 1 -0.22427,0.168691 0.1984375,0.1984375 0 0 1 -0.16869,-0.224273 0.1984375,0.1984375 0 0 1 0.22427,-0.16869 z m 8.5118,2.206521 a 0.1984375,0.1984375 0 0 1 0.16869,0.224273 0.1984375,0.1984375 0 0 1 -0.22427,0.168691 0.1984375,0.1984375 0 0 1 -0.16869,-0.224273 0.1984375,0.1984375 0 0 1 0.22427,-0.168691 z m -6.70275,-0.580115 a 0.1984375,0.1984375 0 0 1 0.1687,0.224273 0.1984375,0.1984375 0 0 1 -0.22428,0.168691 0.1984375,0.1984375 0 0 1 -0.16869,-0.224273 0.1984375,0.1984375 0 0 1 0.22427,-0.168691 z m 3.50134,0.528643 a 0.1984375,0.1984375 0 0 1 0.1687,0.224273 0.1984375,0.1984375 0 0 1 -0.22428,0.168691 0.1984375,0.1984375 0 0 1 -0.16869,-0.224273 0.1984375,0.1984375 0 0 1 0.22427,-0.168691 z m -6.09264,0.541649 a 0.1984375,0.1984375 0 0 1 0.16869,0.224273 0.1984375,0.1984375 0 0 1 -0.22427,0.168691 0.1984375,0.1984375 0 0 1 -0.16869,-0.224273 0.1984375,0.1984375 0 0 1 0.22427,-0.168691 z m 3.71744,0.893751 a 0.1984375,0.1984375 0 0 1 0.16869,0.224272 0.1984375,0.1984375 0 0 1 -0.22428,0.168691 0.1984375,0.1984375 0 0 1 -0.16869,-0.224273 0.1984375,0.1984375 0 0 1 0.22428,-0.16869 z m -6.93242,-0.613121 a 0.1984375,0.1984375 0 0 1 0.16869,0.224273 0.1984375,0.1984375 0 0 1 -0.22427,0.16869 0.1984375,0.1984375 0 0 1 -0.1687,-0.224272 0.1984375,0.1984375 0 0 1 0.22428,-0.168691 z m 11.54393,2.034159 a 0.1984375,0.1984375 0 0 1 0.16869,0.224272 0.1984375,0.1984375 0 0 1 -0.22427,0.168691 0.1984375,0.1984375 0 0 1 -0.16869,-0.224273 0.1984375,0.1984375 0 0 1 0.22427,-0.16869 z m -2.70035,-0.04793 a 0.1984375,0.1984375 0 0 1 0.16869,0.224273 0.1984375,0.1984375 0 0 1 -0.22428,0.168691 0.1984375,0.1984375 0 0 1 -0.16869,-0.224273 0.1984375,0.1984375 0 0 1 0.22428,-0.168691 z m -4.10925,-0.01287 a 0.1984375,0.1984375 0 0 1 0.16869,0.224273 0.1984375,0.1984375 0 0 1 -0.22428,0.16869 0.1984375,0.1984375 0 0 1 -0.16869,-0.224272 0.1984375,0.1984375 0 0 1 0.22428,-0.168691 z m -3.01824,0.07412 a 0.1984375,0.1984375 0 0 1 0.16869,0.224273 0.1984375,0.1984375 0 0 1 -0.22428,0.16869 0.1984375,0.1984375 0 0 1 -0.16869,-0.224272 0.1984375,0.1984375 0 0 1 0.22428,-0.168691 z m 5.25364,2.08022 a 0.1984375,0.1984375 0 0 1 0.16869,0.224272 0.1984375,0.1984375 0 0 1 -0.22427,0.168691 0.1984375,0.1984375 0 0 1 -0.16869,-0.224273 0.1984375,0.1984375 0 0 1 0.22427,-0.16869 z m -7.63928,-1.047123 a 0.1984375,0.1984375 0 0 1 0.1687,0.224273 0.1984375,0.1984375 0 0 1 -0.22428,0.16869 0.1984375,0.1984375 0 0 1 -0.16869,-0.224272 0.1984375,0.1984375 0 0 1 0.22427,-0.168691 z m 10.95836,1.683595 a 0.1984375,0.1984375 0 0 1 0.16869,0.224273 0.1984375,0.1984375 0 0 1 -0.22427,0.16869 0.1984375,0.1984375 0 0 1 -0.16869,-0.224272 0.1984375,0.1984375 0 0 1 0.22427,-0.168691 z m -6.20144,-0.342196 a 0.1984375,0.1984375 0 0 1 0.16869,0.224273 0.1984375,0.1984375 0 0 1 -0.22428,0.168691 0.1984375,0.1984375 0 0 1 -0.16869,-0.224273 0.1984375,0.1984375 0 0 1 0.22428,-0.168691 z m -2.5397,1.07811 a 0.1984375,0.1984375 0 0 1 0.0138,0.002 0.1984375,0.1984375 0 0 1 0.16869,0.224273 0.1984375,0.1984375 0 0 1 -0.22427,0.16869 0.1984375,0.1984375 0 0 1 -0.16869,-0.224273 0.1984375,0.1984375 0 0 1 0.21046,-0.170644 z m 8.8341,1.374262 c -0.075,0.379938 -0.12621,0.768626 -0.16464,1.164052 a 1.9422538,1.9422538 0 0 0 0.16062,-0.482489 1.9422538,1.9422538 0 0 0 0.004,-0.681563 z m -3.13198,1.01e-4 a 0.1984375,0.1984375 0 0 1 0.16869,0.224272 0.1984375,0.1984375 0 0 1 -0.22427,0.168691 0.1984375,0.1984375 0 0 1 -0.16869,-0.224273 0.1984375,0.1984375 0 0 1 0.22427,-0.16869 z m -9.15535,-0.726604 a 0.1984375,0.1984375 0 0 1 0.16869,0.224273 0.1984375,0.1984375 0 0 1 -0.22427,0.16869 0.1984375,0.1984375 0 0 1 -0.1687,-0.224272 0.1984375,0.1984375 0 0 1 0.22428,-0.168691 z m 6.70365,1.282207 a 0.1984375,0.1984375 0 0 1 0.16869,0.224273 0.1984375,0.1984375 0 0 1 -0.22427,0.168691 0.1984375,0.1984375 0 0 1 -0.16869,-0.224273 0.1984375,0.1984375 0 0 1 0.22427,-0.168691 z m -4.06659,0.393991 a 0.1984375,0.1984375 0 0 1 0.16869,0.224272 0.1984375,0.1984375 0 0 1 -0.22427,0.168691 0.1984375,0.1984375 0 0 1 -0.1687,-0.224273 0.1984375,0.1984375 0 0 1 0.22428,-0.16869 z m 2.20607,1.181009 a 0.1984375,0.1984375 0 0 1 0.16869,0.224273 0.1984375,0.1984375 0 0 1 -0.22427,0.168691 0.1984375,0.1984375 0 0 1 -0.1687,-0.224273 0.1984375,0.1984375 0 0 1 0.22428,-0.168691 z m 5.36945,0.7928755 a 0.1984375,0.1984375 0 0 1 0.16869,0.2242728 0.1984375,0.1984375 0 0 1 -0.22427,0.1686908 0.1984375,0.1984375 0 0 1 -0.12038,-0.063998 0.1984375,0.1984375 0 0 1 -0.0125,-0.01533 0.1984375,0.1984375 0 0 1 -0.0359,-0.1449449 0.1984375,0.1984375 0 0 1 0.15119,-0.1649338 0.1984375,0.1984375 0 0 1 0.0194,-0.00405 0.1984375,0.1984375 0 0 1 0.0537,2.893e-4 z m -3.32597,1.3014421 a 0.1984375,0.1984375 0 0 1 0.16869,0.2242728 0.1984375,0.1984375 0 0 1 -0.22427,0.1686908 0.1984375,0.1984375 0 0 1 -0.16869,-0.2242728 0.1984375,0.1984375 0 0 1 0.22427,-0.1686908 z m -6.23065,-0.8478815 a 0.1984375,0.1984375 0 0 1 0.1687,0.2242729 0.1984375,0.1984375 0 0 1 -0.22428,0.1686908 0.1984375,0.1984375 0 0 1 -0.16869,-0.2242729 0.1984375,0.1984375 0 0 1 0.22427,-0.1686908 z m 3.4107,2.3539824 a 0.1984375,0.1984375 0 0 1 0.16869,0.2242728 0.1984375,0.1984375 0 0 1 -0.22428,0.1686908 0.1984375,0.1984375 0 0 1 -0.16869,-0.2242728 0.1984375,0.1984375 0 0 1 0.22428,-0.1686908 z"
       id="path4831"
       inkscape:connector-curvature="0" />
    <path
       style="opacity:1;fill:#12b1eb;fill-opacity:1;stroke:none;stroke-width:0.66145831;stroke-linecap:butt;stroke-linejoin:miter;stroke-miterlimit:4;stroke-dasharray:none;stroke-opacity:1;paint-order:markers stroke fill"
       d="m 232.66156,-35.013568 c -0.21677,0.05498 -0.57312,0.163092 -0.66792,-0.126791 -0.22833,-0.337807 -0.56344,-0.65954 -0.99049,-0.690614 -0.0835,0.276306 -0.45507,0.446125 -0.63303,0.1579 -0.47854,-0.395294 -0.98898,-0.796474 -1.60576,-0.941483 -0.20362,0.139285 -0.44027,0.422534 -0.70847,0.25986 -0.42731,-0.112453 -0.90643,-0.05034 -1.26962,0.209313 -0.66246,0.111401 -1.38821,-0.165348 -2.00101,0.203647 -0.22708,0.153702 -0.44561,0.37207 -0.74311,0.349442 -0.55595,0.04568 -1.16923,0.114952 -1.60424,0.496743 -0.20585,0.226483 -0.16441,0.638992 -0.4947,0.750716 -0.69382,0.209728 -1.44692,0.456761 -1.89818,1.063826 0.0328,0.244732 0.1078,0.632006 -0.19947,0.731171 -0.53654,0.368509 -1.02198,0.856291 -1.25454,1.47522 -0.027,0.300983 0.33172,0.376539 0.55298,0.447768 -0.0321,0.298943 -0.40418,0.360215 -0.56745,0.575703 -0.75446,0.622504 -1.50818,1.246172 -2.2835,1.842687 0.0803,0.213942 0.37956,0.44151 0.18967,0.677289 -0.87021,0.555019 -1.77252,1.085539 -2.50248,1.825683 -0.18623,0.295127 0.38917,0.302412 0.35558,0.535809 -0.14104,0.278018 -0.45496,0.405196 -0.63192,0.656602 -0.33731,0.339354 -0.66978,0.703016 -0.85085,1.153052 0.0864,0.211566 0.58061,0.327179 0.30844,0.602454 -0.29631,0.429395 -0.67452,0.811239 -0.86924,1.303166 -0.001,0.28165 0.50884,0.08106 0.47007,0.358568 -0.34854,0.533515 -0.79714,1.004278 -1.09527,1.573829 -0.30755,0.53595 -0.54515,1.12293 -0.60953,1.741631 0.23284,-0.216767 0.25504,-0.57008 0.4921,-0.785726 0.80181,-1.097838 2.07924,-1.665468 3.21054,-2.350087 0.56374,-0.340545 1.19932,-0.529333 1.83418,-0.682359 0.41567,-0.137915 0.80599,-0.346436 1.15913,-0.604655 0.004,-0.306073 -0.39149,-0.296338 -0.54036,-0.494925 -0.6259,-0.429914 -1.35453,-0.837383 -2.14145,-0.751959 -0.2516,-0.08336 0.29353,-0.158776 0.38608,-0.10146 0.81039,0.04362 1.50588,0.508964 2.19194,0.894587 0.16074,0.217111 0.52466,0.282897 0.71246,0.06472 1.68829,-0.993547 3.3588,-2.024747 5.12677,-2.87359 0.26595,-0.192057 -0.14766,-0.406708 -0.33613,-0.409764 -1.44143,-0.601175 -3.05591,-0.49849 -4.55503,-0.19801 -0.85667,0.134187 -1.71754,0.237783 -2.57844,0.340397 1.58618,-0.168477 3.13002,-0.595886 4.70762,-0.815094 1.14475,-0.0667 2.2656,0.285206 3.2987,0.747981 0.60488,-0.165083 1.16263,-0.472561 1.77974,-0.600153 1.08628,-0.315587 2.20738,-0.48828 3.29894,-0.783124 -0.3438,-0.37858 -0.82274,-0.591079 -1.23561,-0.881725 -1.79186,-1.077539 -3.87571,-1.56446 -5.94028,-1.75311 -0.86032,-0.05937 -1.73299,0.141136 -2.47752,0.57782 -0.547,0.282669 -1.05985,0.625341 -1.58541,0.944977 0.82304,-0.54759 1.58606,-1.222552 2.53483,-1.547813 0.34472,-0.01184 0.2214,-0.468259 0.10954,-0.663721 -0.16633,-0.355367 -0.49336,-0.615784 -0.85638,-0.751795 0.1165,-0.108533 0.39052,0.144821 0.56315,0.175096 0.33809,0.194758 0.42142,0.602447 0.52625,0.943368 0.19608,0.258701 0.54607,0.07421 0.81304,0.119039 2.18728,0.05081 4.40299,0.520252 6.30969,1.625517 0.55099,0.299125 1.0475,0.687084 1.55543,1.048168 0.31813,0.107108 0.62787,-0.108659 0.94006,-0.150267 1.72778,-0.453585 3.45513,-0.945348 5.08627,-1.683534 -0.11116,-0.2976 -0.49727,-0.211021 -0.71859,-0.363226 -1.4099,-0.461606 -2.94132,-0.543882 -4.27325,-1.237564 -0.32775,-0.330458 -0.84497,-0.08013 -1.2188,-0.312421 -1.28005,-0.476748 -2.44394,-1.257413 -3.7841,-1.569578 -0.59604,-0.129755 -1.2111,-0.0238 -1.80991,-0.139745 -0.40934,-0.04699 -0.82542,-0.179973 -1.23208,-0.04128 -0.21751,0.0668 -0.54121,0.0899 -0.16224,-0.02901 0.17998,-0.06342 0.52707,-0.132025 0.45541,-0.387773 0.0589,-0.402184 0.076,-0.02621 0.18296,0.125663 0.26016,0.222548 0.63809,0.186906 0.95571,0.256352 0.38355,0.0492 0.77174,0.04927 1.15709,0.02348 0.25436,0.149789 0.52454,-0.280836 0.30153,-0.459005 -0.1681,-0.448775 -0.50949,-0.798897 -0.84685,-1.126613 -0.31202,0.123337 -0.26944,-0.296588 -0.004,-0.285872 0.18628,-0.189812 0.30182,-0.440755 0.50945,-0.611166 -0.0871,0.278211 -0.3609,0.475846 -0.37527,0.77983 0.22714,0.423686 0.68594,0.681602 0.84358,1.150723 0.15091,0.346893 0.4104,0.66086 0.78636,0.766131 1.16216,0.495189 2.27907,1.101325 3.47853,1.505088 0.25807,-0.129887 0.0366,-0.429406 -0.0682,-0.592473 -0.39633,-0.714568 -0.77197,-1.44037 -1.15385,-2.162721 -0.71468,-0.563908 -1.43417,-1.134637 -2.24741,-1.552075 0.37351,0.134233 0.69499,0.40647 1.09725,0.458357 0.11243,-0.151528 0.43958,-0.519215 0.2183,-0.107376 -0.13112,0.266524 0.13919,0.496982 0.36265,0.588105 0.16792,0.1199 0.4179,0.434369 0.62175,0.21549 0.18573,-0.181628 0.22393,-0.488413 0.42998,-0.641625 -0.0696,0.351386 -0.37261,0.64462 -0.34369,1.013787 0.49841,0.814097 0.95369,1.671114 1.46991,2.481407 0.20089,0.398431 0.65324,0.57283 1.04506,0.729822 0.66517,0.21647 1.3566,0.338659 2.03045,0.524926 0.63294,0.151234 1.26751,0.299758 1.88684,0.5011 -0.70634,-0.901357 -1.80762,-1.357757 -2.59252,-2.172775 -0.41413,-0.467032 -0.68437,-1.038833 -0.92362,-1.609837 -0.4814,-0.411194 -1.08226,-0.788825 -1.25956,-1.43664 0.25511,0.127182 0.3312,0.450121 0.56159,0.615395 0.21849,0.179358 0.3539,0.506071 0.68251,0.421469 0.3131,0.02954 0.16525,0.391603 0.28195,0.586375 0.30224,1.000823 1.14681,1.701994 1.99414,2.247882 0.62043,0.440392 1.16406,0.976025 1.71022,1.501242 0.19346,0.19551 0.59865,0.140525 0.63348,-0.161484 -0.0397,-0.320959 -0.27145,-0.582345 -0.4416,-0.847751 -0.76644,-1.038898 -1.93839,-1.779103 -2.42731,-3.014845 -0.17318,-0.368698 -0.23199,-0.779219 -0.32003,-1.168295 -0.0646,-0.118639 -0.15699,-0.232366 -0.28018,-0.292986 z m 3.59197,5.844059 c -0.48193,0.179717 -0.6341,0.794193 -0.47488,1.244883 0.15886,1.396601 -0.42067,2.725697 -0.93022,3.990652 -0.15708,0.249097 0.0876,-0.389766 0.12034,-0.500963 0.35679,-1.072694 0.78199,-2.185553 0.61693,-3.337088 -0.0394,-0.142295 0.0395,-0.709982 -0.1316,-0.556707 -0.41946,0.593494 -0.83892,1.186967 -1.25837,1.780463 -0.2185,1.312019 -0.64581,2.595929 -1.33263,3.738905 -0.0674,0.12428 -0.39776,0.793958 -0.22111,0.381463 0.48995,-1.208504 1.11544,-2.40137 1.2458,-3.716938 -0.0964,-0.267342 -0.37076,0.143458 -0.52267,0.20499 -0.87065,0.660627 -1.63803,1.445349 -2.3637,2.257959 -0.22591,0.162321 -0.37745,0.444135 -0.30593,0.723253 0.0234,0.988665 -0.14488,1.990759 -0.56275,2.891302 0.19582,-0.839601 0.44242,-1.694328 0.35123,-2.565302 0.13979,-0.241666 -0.15493,-0.629381 -0.32689,-0.276649 -1.25175,1.398851 -2.1783,3.041245 -3.27327,4.557599 -0.10306,0.143794 -0.52489,0.768442 -0.23462,0.319117 1.00222,-1.557571 1.93486,-3.166866 3.06248,-4.638366 1.29297,-1.405563 2.61555,-2.801786 4.15178,-3.94653 0.55602,-0.596357 0.93518,-1.324926 1.41433,-1.97917 -0.11035,-0.253211 -0.44482,0.155526 -0.65573,0.135965 -1.36836,0.519684 -2.77779,0.921677 -4.19733,1.274629 -0.68874,1.280249 -1.77348,2.272775 -2.78999,3.286646 -1.35416,1.525051 -2.26883,3.366621 -3.42048,5.036743 -0.13764,0.06446 -0.0881,0.594467 -0.22622,0.343453 -0.14056,-0.296922 -0.39118,0.112928 -0.56467,0.182426 -0.35601,0.246187 -0.71949,0.48134 -1.07947,0.721634 0.55079,-0.399036 1.10156,-0.798074 1.65235,-1.197108 1.20202,-1.789152 2.20272,-3.72477 3.61673,-5.36358 0.7473,-0.804228 1.62268,-1.50526 2.21049,-2.445332 0.28337,-0.09995 0.18128,-0.632577 -0.1457,-0.422025 -1.15111,0.301712 -2.33053,0.483496 -3.48243,0.784278 -0.30017,0.09426 -0.63,0.110073 -0.91179,0.249099 -0.29933,0.254133 -0.40456,0.658511 -0.62728,0.97309 -0.99176,1.721289 -2.03522,3.41348 -3.00563,5.146364 -0.30125,0.51345 -0.74186,0.927292 -1.24305,1.242265 -0.14961,0.107485 -0.66917,0.498333 -0.27753,0.178854 0.65027,-0.548244 1.35006,-1.107944 1.68232,-1.917592 0.90286,-1.678153 1.92866,-3.286351 2.83838,-4.960766 0.0639,-0.190907 0.54443,-0.736279 0.0999,-0.494749 -1.5002,0.584105 -2.86975,1.44134 -4.29338,2.182526 -0.32838,0.05751 -0.30888,0.464741 -0.32982,0.719833 -0.15651,1.283611 -0.95972,2.368888 -1.83677,3.271161 -0.13455,0.154044 -0.36302,0.38476 -0.1142,0.08844 0.75665,-0.958155 1.57268,-1.96368 1.77183,-3.206104 0.0815,-0.191639 0.0177,-0.63716 -0.26656,-0.419254 -0.87604,0.508291 -1.71442,1.078385 -2.58963,1.588096 -0.28142,0.01554 -0.52191,0.277785 -0.47568,0.561353 -0.10865,0.63674 -0.50885,1.179643 -0.96315,1.620009 0.38883,-0.532029 0.73493,-1.121275 0.84149,-1.780892 -0.12984,-0.298788 -0.49685,-0.08522 -0.71786,-0.02912 -0.75922,0.259055 -1.40606,0.752225 -2.12404,1.099344 -0.91299,0.502196 -1.81642,1.125636 -2.3389,2.052871 -0.16247,0.129623 -0.18442,0.503353 0.0516,0.206041 0.78692,-0.627879 1.84542,-0.74587 2.65321,-1.335481 0.2965,-0.207247 0.35328,0.208662 0.50055,0.360798 0.34194,0.301125 0.84029,0.0931 1.1758,-0.11453 0.19947,-0.232152 0.51023,-0.02905 0.41082,0.251786 -0.0473,0.312872 0.32287,0.455377 0.57212,0.502801 0.66901,0.157244 1.36636,0.137715 2.04668,0.119697 0.30639,0.01667 -0.031,0.383896 -0.11822,0.49379 -0.0643,0.304776 0.28962,0.447329 0.53802,0.402868 0.65362,0.01125 1.28164,-0.193311 1.91091,-0.341665 -0.0184,0.225041 -0.35142,0.364457 -0.26977,0.638311 0.0444,0.331427 0.45055,0.321304 0.70205,0.275425 0.55216,-0.121205 1.07206,-0.357774 1.57951,-0.599246 0.0171,0.139969 -0.27498,0.367126 -0.30468,0.576531 -0.0997,0.213424 -0.0719,0.536981 0.22955,0.521094 0.43316,0.01127 0.8066,-0.2653 1.1834,-0.444456 0.18856,-0.06958 0.57043,-0.444916 0.3811,-0.03901 -0.0196,0.353281 0.36015,0.679092 0.70174,0.521589 0.80732,-0.130491 1.46707,-0.649539 2.1513,-1.05814 0.0917,-0.300283 0.56692,-0.128853 0.43527,0.162259 0.075,0.302231 0.49329,0.394775 0.71045,0.185727 0.33733,-0.167356 0.58296,-0.46204 0.85296,-0.715615 0.0419,-0.302325 0.50464,-0.206431 0.56183,0.0419 0.3634,0.04736 0.53852,-0.345961 0.68954,-0.604973 0.19427,-0.198519 0.52561,0.183338 0.68478,-0.112738 0.2729,-0.313985 0.41223,-0.71856 0.59181,-1.086345 0.10863,0.10202 0.29908,0.482744 0.51992,0.178605 0.34731,-0.504734 0.52994,-1.099417 0.71132,-1.679431 0.22717,-0.01241 0.44742,0.452036 0.63786,0.125367 0.35036,-0.438261 0.51453,-0.983544 0.72968,-1.493144 -0.033,-0.367269 0.48779,-0.06964 0.59054,-0.341511 0.18951,-0.317892 0.22899,-0.700444 0.31225,-1.054846 -0.0174,-0.274674 0.0805,-0.363948 0.29073,-0.189046 0.32243,0.03551 0.37467,-0.319861 0.45677,-0.545243 0.42426,-1.225441 0.42387,-2.54901 0.33373,-3.827535 -0.0391,-0.363416 -0.12071,-0.721031 -0.21897,-1.072698 l -0.0458,0.01544 z"
       id="path4643"
       inkscape:connector-curvature="0" />
    <path
       sodipodi:nodetypes="cscccccccccsscc"
       inkscape:connector-curvature="0"
       style="fill:#12b1eb;fill-opacity:1;stroke:none;stroke-width:0.26458332px;stroke-linecap:butt;stroke-linejoin:miter;stroke-opacity:1"
       d="m 298.91488,-57.011074 c -13.87232,3.533763 -37.54768,15.586765 -49.67122,22.749909 -0.85541,0.50541 -2.87165,1.952886 -5.24925,3.069328 -1.58989,0.686189 -7.22162,1.852175 -7.22162,1.852175 0,0 2.49518,-0.304906 3.12841,-0.413955 0.63324,-0.109072 3.37192,-0.736732 4.17908,-1.071178 0.0318,-0.01317 0.0974,-0.04591 0.13344,-0.0615 -0.12969,0.195927 -0.69696,1.05724 -0.99222,1.649803 -0.33001,0.662328 -0.42791,1.357498 -0.42791,1.357498 0,0 0.37198,-1.12942 1.13827,-2.20272 0.38109,-0.533769 0.58158,-0.828562 0.6877,-0.991429 1.02496,-0.480942 2.84416,-1.430474 4.85689,-2.616181 0.96751,-0.569972 7.71651,-4.358069 16.99787,-8.913611 13.60234,-6.676382 32.37224,-12.556158 32.37224,-12.556158 z"
       id="path5095" />
    <circle
       r="0.1984375"
       cy="126.36666"
       cx="258.30783"
       id="ellipse5043"
       style="opacity:1;fill:#ffffff;fill-opacity:1;stroke:none;stroke-width:0.17632265;stroke-miterlimit:4;stroke-dasharray:none;stroke-opacity:1;paint-order:markers stroke fill" />
    <path
       inkscape:connector-curvature="0"
       id="path4717"
       d="m 255.70646,-29.354311 c 1.87985,0.344668 3.56429,1.426283 5.49246,1.556041 0.50838,-0.0326 1.01959,-0.170114 1.52847,-0.06786 0.23209,0.24117 0.18249,0.726577 0.56461,0.81957 0.43007,0.149706 0.86349,0.371897 1.12331,0.760514 -0.10367,0.335245 -0.0624,0.794143 0.30334,0.947986 0.55767,0.408043 1.11996,0.831494 1.53562,1.391213 -0.0704,0.426669 -0.0906,0.900119 0.16189,1.273483 0.171,0.453093 0.19794,0.950287 0.13077,1.426928 0.22788,0.980417 0.74954,1.93973 0.57262,2.974025 -0.0577,1.003468 0.50483,1.977309 0.23831,2.97947 -0.23719,0.426262 -0.55861,0.909691 -0.37115,1.416338 0.1422,0.824209 0.27077,1.661749 0.19594,2.500061 -0.20951,0.266807 -0.59902,0.453851 -0.58573,0.841806 -0.11445,0.6606715 -0.11986,1.3500889 -0.39056,1.9741781 -0.0511,0.2242126 -0.22026,0.5309456 -0.4964,0.4415115 -0.26357,0.04695 -0.31177,-0.4281232 -0.54607,-0.3136586 -0.27661,0.1547364 -0.26423,0.5104763 -0.25402,0.7832543 -0.0925,1.2310652 -0.21486,2.4595893 -0.32662,3.688984 -0.1769,0.214206 -0.47102,0.2417764 -0.72827,0.2678348 -0.48724,0.9561768 -0.37267,2.0956618 -0.86819,3.04938506 -0.2055,0.57282406 -0.46736,1.12538697 -0.78591,1.64412684 -0.2,0.1649965 -0.5668,0.065728 -0.62506,-0.19690037 -0.86316,0.78211437 -1.20975,1.95156917 -1.99177,2.79942397 -0.12927,0.3048803 -0.49161,0.4957259 -0.81054,0.3784952 -0.24398,-0.04976 -0.56004,-0.014881 -0.65803,0.2522293 -0.37487,0.5403946 -0.76775,1.0684059 -1.18334,1.5782378 -0.30273,-9.81e-5 -0.54287,-0.2547991 -0.84831,-0.2363644 -0.63706,1.028607 -1.30629,2.1199281 -2.3871,2.7356081 -0.27038,0.086718 -0.58598,-0.1651941 -0.55389,-0.4491776 -0.21831,-1.0233698 -0.54971,-2.0242172 -0.66882,-3.0672576 -0.34486,-0.5263143 -1.17687,-0.468406 -1.42191,-1.0896563 -0.23058,-0.4304659 -0.22277,-0.9326404 -0.22309,-1.4075263 -0.29826,-0.4479451 -1.01939,-0.2169024 -1.27657,-0.7178569 -0.66446,-0.8544077 -0.80625,-1.96054729 -1.09431,-2.9729367 -0.11042,-0.2345062 -0.0416,-0.6206173 -0.26681,-0.7592998 -0.29278,-0.062015 -0.462,0.3984433 -0.75451,0.2480552 -0.31294,-0.1903425 -0.21383,-0.6013828 -0.27408,-0.904135 -0.0894,-0.8432559 -0.0947,-1.6921764 -0.11077,-2.5391571 -0.28861,0.07402 -0.42125,0.4505445 -0.74268,0.4393779 -0.48765,-0.3705472 -0.45971,-1.0467277 -0.44039,-1.5961883 0.012,-0.4706631 0.0312,-0.9410505 0.055,-1.4112492 -0.36023,0.1346064 -0.45633,0.6567037 -0.87659,0.6748959 -0.41808,-0.1313471 -0.42536,-0.649907 -0.40733,-1.0114958 0.001,-0.3659456 0.0233,-0.7325631 0.0954,-1.0919853 -0.0732,-0.3155697 -0.46156,-0.1799344 -0.68423,-0.2666636 -0.47737,-0.1988856 -0.55017,-0.7992181 -0.47898,-1.2504851 0.0612,-0.764038 0.12142,-1.532489 0.30173,-2.27959 0.20706,-0.196417 -0.0211,-0.623071 -0.30179,-0.516102 -0.48501,0.07884 -0.85811,-0.566208 -0.58608,-0.960687 0.11346,-0.385834 0.25997,-0.760507 0.40142,-1.136624 0.27016,-0.115463 0.10202,-0.608429 -0.18468,-0.521241 -0.29477,-0.3041 -0.14385,-0.816342 0.15953,-1.05642 0.13573,-0.238259 -0.003,-0.514367 -0.13249,-0.72295 0.0187,-0.485707 0.47183,-0.762828 0.72903,-1.123815 0.2935,-0.03848 0.27658,-0.532554 -0.021,-0.549371 -0.17934,-0.28358 0.0885,-0.589763 0.3059,-0.757353 0.32032,-0.336687 0.67846,-0.633706 1.0253,-0.942101 0.29877,0.08033 0.36892,-0.501173 0.0524,-0.481791 -0.26589,-0.210937 -0.16082,-0.67638 0.13724,-0.803146 0.47715,-0.460827 0.97461,-0.899754 1.46815,-1.34277 -0.057,-0.370307 -0.007,-0.856221 0.38871,-1.017974 0.24265,-0.172386 0.4879,-0.341022 0.73446,-0.507733 0.30447,0.05781 0.46391,-0.458044 0.16965,-0.571726 0.29505,-0.756555 1.09166,-1.086411 1.72702,-1.49947 1.29891,-0.713248 2.72579,-1.144625 4.14576,-1.543976 0.27462,-0.261234 0.74254,0.227798 0.4672,0.490183 -0.36513,0.588463 -1.12154,0.623383 -1.69448,0.892797 -1.48688,0.632861 -2.68129,1.752661 -3.90399,2.777282 1.42819,-0.990304 2.79402,-2.143425 4.46568,-2.703975 0.12273,-0.173673 0.4982,-0.221662 0.56984,0.01556 -0.10522,0.366163 -0.34221,0.686054 -0.5176,1.023538 -0.31345,0.496666 -0.58412,1.052194 -1.0971,1.376638 -1.31622,0.92486 -2.6577,1.841379 -3.78215,3.001575 -0.13837,0.146586 -0.44756,0.466194 -0.10797,0.177822 1.16652,-0.897294 2.31836,-1.817397 3.55027,-2.624968 0.14315,-0.300151 0.70197,-0.02708 0.51854,0.26665 -0.63079,1.515412 -1.38838,2.982279 -2.32136,4.334806 -0.93068,0.638148 -2.06342,0.887889 -3.00012,1.517935 -0.29326,0.187578 -0.57504,0.394757 -0.82744,0.635208 0.47424,-0.180532 0.87194,-0.51185 1.34456,-0.697812 0.5018,-0.256068 1.02443,-0.468407 1.55242,-0.663796 0.1,-0.279886 0.62878,-0.04471 0.43395,0.209326 -1.62382,2.074864 -3.17477,4.210815 -4.55825,6.454523 1.66467,-2.546593 3.65907,-4.855171 5.37058,-7.368374 1.03218,-1.581651 1.90306,-3.278589 2.47956,-5.080691 0.52688,-0.887376 1.05654,-1.773096 1.58897,-2.657163 0.47466,2.116545 0.51536,4.29652 0.54259,6.456016 -2.26571,2.653006 -4.14402,5.60166 -6.19373,8.417683 -0.64367,1.000777 -1.28734,2.001544 -1.93102,3.0023216 -0.002,0.8022033 -0.1585,1.5925974 -0.32018,2.3750463 0.18172,-0.7777858 0.36336,-1.5555827 0.54506,-2.3333826 1.5332,-2.5154673 3.23629,-4.9218263 4.9944,-7.2838833 0.80629,-1.116624 1.58434,-2.255836 2.46414,-3.317039 -0.0286,-0.293366 0.55002,-0.316985 0.48918,1.1e-4 -0.0841,1.930885 -0.19683,3.860835 -0.23753,5.793361 -2.17069,2.790254 -4.23236,5.6723539 -6.0323,8.7176562 -0.2394,0.5861788 -0.43672,1.187956 -0.63944,1.7874427 0.69479,-1.7329533 1.59079,-3.39903 2.7876,-4.8390994 1.17295,-1.6897425 2.3609,-3.3719305 3.66636,-4.9630115 0.29225,-0.02007 0.42432,0.357215 0.31542,0.58707 -0.10094,2.222901 0.2909,4.4449171 0.0711,6.6654897 -0.20637,0.620777 -0.90538,0.7900288 -1.38837,1.1295214 -1.53543,1.0708685 -2.60586,2.6581691 -3.49312,4.2772252 1.09134,-1.5862718 2.2584,-3.2058274 3.92465,-4.2342654 0.19412,-0.1752315 0.54554,-0.3447157 0.75916,-0.1096101 0.2393,0.3725856 -0.0433,0.7926328 -0.0764,1.1819809 -0.32764,1.4994115 -0.74827,2.9770769 -1.05787,4.48060567 -0.38746,0.72994943 -1.29532,0.91890642 -1.77028,1.56830883 -0.15033,0.060038 -0.36576,0.523707 -0.0731,0.4332428 0.21366,-0.1766883 0.34922,-0.4506328 0.59935,-0.5974907 0.30097,-0.2433877 0.63151,-0.44887015 0.98219,-0.61262159 0.45836,0.26230699 0.42503,0.85726389 0.41222,1.31366719 0.0497,1.7138535 0.1176,3.4342763 -0.0552,5.143719 -0.12265,0.3173204 -0.27751,0.6213593 -0.44896,0.9148895 0.7006,-0.7080487 0.80139,-1.7694647 0.75885,-2.7154038 -0.0199,-2.0253615 -0.0399,-4.0507145 -0.0598,-6.07606613 0.0691,-0.31530452 0.16246,-0.62446247 0.24868,-0.93533157 0.56265,-0.1002995 0.98773,0.3637659 1.39663,0.66898075 0.77747,0.60333963 1.57837,1.21210565 2.14513,2.02941525 0.19625,-0.29555862 -0.0925,-0.61471585 -0.31598,-0.79229178 -0.86179,-0.84531374 -1.80717,-1.59824402 -2.75572,-2.34262382 -0.32302,-0.4483789 -0.052,-1.0008837 0.0529,-1.4758844 0.65022,-2.7797132 0.54884,-5.6584829 0.39372,-8.4874879 0.0463,-0.284579 0.5069,-0.320892 0.61422,-0.06107 1.40586,1.638075 2.92524,3.2595132 3.74092,5.292878 0.81089,1.8969704 1.45115,3.8631854 1.97448,5.85769536 -0.67623,-3.04234026 -1.61224,-6.07855046 -3.28165,-8.73514196 -0.88079,-1.1695304 -1.93311,-2.1921964 -2.92742,-3.2624454 -0.34003,-2.181684 -0.0625,-4.38852 0.0133,-6.578599 0.10545,-0.286355 0.56565,-0.317187 0.68826,-0.0271 2.27732,2.488856 4.00375,5.404022 5.97271,8.128252 0.79041,1.133346 1.27311,2.4759597 1.3753,3.8546889 0.0551,0.4710326 0.0877,0.9442247 0.12643,1.4167805 -0.0348,-1.3147361 -0.0367,-2.6549608 -0.42529,-3.9244084 0.59358,-0.352595 1.37717,-0.175822 1.87864,0.2596611 0.0568,-0.3109681 -0.34964,-0.3520071 -0.54305,-0.4786521 -0.51302,-0.240739 -1.19656,-0.02767 -1.61282,-0.483156 -0.47339,-0.521942 -0.77394,-1.17103 -1.2188,-1.715397 -1.65271,-2.338235 -3.02585,-4.898819 -5.03032,-6.96932 -0.29505,-0.270557 -0.61402,-0.512715 -0.92889,-0.759323 -0.34599,-0.990024 -0.0231,-2.045192 -0.16682,-3.060749 -0.0639,-1.676487 -0.23931,-3.34582 -0.39514,-5.015519 1.15169,0.842295 1.83946,2.125665 2.71774,3.218024 0.51739,0.724438 1.0725,1.425016 1.64016,2.107563 1.05981,2.209209 2.98249,3.876329 3.96492,6.130453 0.38193,0.703725 0.76387,1.407441 1.14581,2.111167 -0.12053,0.272383 0.43531,0.439759 0.45371,0.125378 -0.19173,-0.595947 -0.87617,-0.863256 -1.05431,-1.46851 -0.2775,-0.499051 -0.47327,-1.037253 -0.69473,-1.562171 -0.002,-0.395273 0.50642,-0.610442 0.82529,-0.423755 0.53435,0.102849 1.01765,0.364089 1.5205,0.560266 0.23876,0.0164 0.50522,-0.479641 0.16169,-0.479804 -0.26742,0.0773 -0.54635,0.169969 -0.80653,0.0039 -0.77714,-0.25987 -1.66235,-0.353364 -2.2941,-0.921217 -0.44723,-0.447524 -0.80832,-0.972579 -1.21033,-1.459933 -0.49954,-0.639079 -0.99284,-1.282982 -1.48857,-1.925006 -0.0409,-0.282894 0.31553,-0.51451 0.55964,-0.372564 0.90349,0.147891 1.81202,0.261347 2.7196,0.380628 0.90995,0.599972 1.75775,1.286613 2.60521,1.970217 -0.32974,-0.35107 -0.65947,-0.702139 -0.9892,-1.053208 0.18215,-0.306945 0.3643,-0.613889 0.54645,-0.920834 -0.25333,0.258619 -0.51033,0.51354 -0.77096,0.764805 -0.35475,-0.271761 -0.70951,-0.543523 -1.06427,-0.815296 0.28787,-0.422175 0.57575,-0.844348 0.86363,-1.266532 -0.34917,0.381298 -0.69833,0.762586 -1.04749,1.143874 -1.16414,-0.189 -2.32935,-0.371889 -3.49022,-0.580423 -1.55386,-1.357648 -2.46376,-3.258331 -3.82693,-4.782302 -0.01,-0.24819 0.38275,0.0542 0.51525,0.08944 1.38792,0.638117 2.60408,1.709044 4.1527,1.951233 0.81426,0.08588 1.56372,0.439369 2.3135,0.740069 0.16149,0.05778 0.73422,0.164246 0.29972,-0.04214 -0.45289,-0.221964 -0.9642,-0.391402 -1.2954,-0.793327 -0.70508,-0.238386 -1.51658,0.06979 -2.17347,-0.350952 -1.55861,-0.626113 -2.89059,-1.696839 -4.44521,-2.33177 -0.25227,-0.107691 -0.45056,-0.43125 -0.25683,-0.679586 0.0887,-0.139036 0.26942,-0.23152 0.4318,-0.170699 z"
       style="opacity:1;fill:#12b1eb;fill-opacity:1;stroke:none;stroke-width:0.66145831;stroke-linecap:butt;stroke-linejoin:miter;stroke-miterlimit:4;stroke-dasharray:none;stroke-opacity:1;paint-order:markers stroke fill" />
  </g>
</svg>
